<mxfile host="app.diagrams.net" agent="Mozilla/5.0 (X11; Linux x86_64) AppleWebKit/537.36 (KHTML, like Gecko) Chrome/131.0.0.0 Safari/537.36" version="26.0.10">
  <diagram name="Page-1" id="K3S1x-HoNtC-xGwuCJ2s">
    <mxGraphModel dx="1642" dy="1062" grid="0" gridSize="10" guides="1" tooltips="1" connect="1" arrows="1" fold="1" page="1" pageScale="1" pageWidth="850" pageHeight="1100" math="1" shadow="0">
      <root>
        <mxCell id="0" />
        <mxCell id="1" parent="0" />
        <mxCell id="4uCp4zY6eOAsEUpB9Vj1-8" value="&lt;span&gt;&lt;svg style=&quot;vertical-align: -0.186ex;&quot; xmlns:xlink=&quot;http://www.w3.org/1999/xlink&quot; viewBox=&quot;0 -583 778 665&quot; role=&quot;img&quot; height=&quot;1.505ex&quot; width=&quot;1.76ex&quot; xmlns=&quot;http://www.w3.org/2000/svg&quot;&gt;&lt;defs&gt;&lt;path d=&quot;M84 237T84 250T98 270H679Q694 262 694 250T679 230H98Q84 237 84 250Z&quot; id=&quot;MJX-1-TEX-N-2212&quot;&gt;&lt;/path&gt;&lt;/defs&gt;&lt;g transform=&quot;scale(1,-1)&quot; stroke-width=&quot;0&quot; fill=&quot;currentColor&quot; stroke=&quot;currentColor&quot;&gt;&lt;g data-mml-node=&quot;math&quot;&gt;&lt;g data-mml-node=&quot;mo&quot;&gt;&lt;use xlink:href=&quot;#MJX-1-TEX-N-2212&quot; data-c=&quot;2212&quot;&gt;&lt;/use&gt;&lt;/g&gt;&lt;/g&gt;&lt;/g&gt;&lt;/svg&gt;&lt;/span&gt;" style="ellipse;whiteSpace=wrap;html=1;aspect=fixed;strokeWidth=2;fontSize=40;" vertex="1" parent="1">
          <mxGeometry x="377" y="188" width="80" height="80" as="geometry" />
        </mxCell>
        <mxCell id="4uCp4zY6eOAsEUpB9Vj1-10" value="&lt;font&gt;$$y$$&lt;/font&gt;" style="ellipse;whiteSpace=wrap;html=1;aspect=fixed;strokeWidth=2;fontSize=40;" vertex="1" parent="1">
          <mxGeometry x="257" y="313" width="80" height="80" as="geometry" />
        </mxCell>
        <mxCell id="4uCp4zY6eOAsEUpB9Vj1-11" value="&lt;font style=&quot;font-size: 30px;&quot;&gt;$$max$$&lt;/font&gt;" style="ellipse;whiteSpace=wrap;html=1;aspect=fixed;strokeWidth=2;fontSize=40;" vertex="1" parent="1">
          <mxGeometry x="483" y="313" width="80" height="80" as="geometry" />
        </mxCell>
        <mxCell id="4uCp4zY6eOAsEUpB9Vj1-12" value="&lt;font&gt;$$0$$&lt;/font&gt;" style="ellipse;whiteSpace=wrap;html=1;aspect=fixed;strokeWidth=2;fontSize=40;" vertex="1" parent="1">
          <mxGeometry x="638" y="408" width="80" height="80" as="geometry" />
        </mxCell>
        <mxCell id="4uCp4zY6eOAsEUpB9Vj1-15" value="&lt;font&gt;$$+$$&lt;/font&gt;" style="ellipse;whiteSpace=wrap;html=1;aspect=fixed;strokeWidth=2;fontSize=40;" vertex="1" parent="1">
          <mxGeometry x="483" y="498" width="80" height="80" as="geometry" />
        </mxCell>
        <mxCell id="4uCp4zY6eOAsEUpB9Vj1-16" value="&lt;font&gt;$$b$$&lt;/font&gt;" style="ellipse;whiteSpace=wrap;html=1;aspect=fixed;strokeWidth=2;fontSize=40;" vertex="1" parent="1">
          <mxGeometry x="345" y="603" width="80" height="80" as="geometry" />
        </mxCell>
        <mxCell id="4uCp4zY6eOAsEUpB9Vj1-17" value="&lt;font&gt;$$\times$$&lt;/font&gt;" style="ellipse;whiteSpace=wrap;html=1;aspect=fixed;strokeWidth=2;fontSize=40;" vertex="1" parent="1">
          <mxGeometry x="610" y="620" width="80" height="80" as="geometry" />
        </mxCell>
        <mxCell id="4uCp4zY6eOAsEUpB9Vj1-18" value="&lt;font&gt;$$x$$&lt;/font&gt;" style="ellipse;whiteSpace=wrap;html=1;aspect=fixed;strokeWidth=2;fontSize=40;" vertex="1" parent="1">
          <mxGeometry x="464" y="745" width="80" height="80" as="geometry" />
        </mxCell>
        <mxCell id="4uCp4zY6eOAsEUpB9Vj1-19" value="&lt;font&gt;$$w$$&lt;/font&gt;" style="ellipse;whiteSpace=wrap;html=1;aspect=fixed;strokeWidth=2;fontSize=40;" vertex="1" parent="1">
          <mxGeometry x="751" y="745" width="80" height="80" as="geometry" />
        </mxCell>
        <mxCell id="4uCp4zY6eOAsEUpB9Vj1-22" value="" style="endArrow=none;html=1;rounded=0;exitX=1;exitY=0;exitDx=0;exitDy=0;entryX=0;entryY=1;entryDx=0;entryDy=0;strokeWidth=2;fontSize=40;" edge="1" parent="1" source="4uCp4zY6eOAsEUpB9Vj1-10" target="4uCp4zY6eOAsEUpB9Vj1-8">
          <mxGeometry width="50" height="50" relative="1" as="geometry">
            <mxPoint x="349" y="387" as="sourcePoint" />
            <mxPoint x="399" y="337" as="targetPoint" />
          </mxGeometry>
        </mxCell>
        <mxCell id="4uCp4zY6eOAsEUpB9Vj1-23" value="" style="endArrow=none;html=1;rounded=0;strokeWidth=2;entryX=1;entryY=1;entryDx=0;entryDy=0;exitX=0;exitY=0;exitDx=0;exitDy=0;fontSize=40;" edge="1" parent="1" source="4uCp4zY6eOAsEUpB9Vj1-11" target="4uCp4zY6eOAsEUpB9Vj1-8">
          <mxGeometry width="50" height="50" relative="1" as="geometry">
            <mxPoint x="338" y="418" as="sourcePoint" />
            <mxPoint x="388" y="368" as="targetPoint" />
          </mxGeometry>
        </mxCell>
        <mxCell id="4uCp4zY6eOAsEUpB9Vj1-25" value="" style="endArrow=none;html=1;rounded=0;exitX=1;exitY=0.5;exitDx=0;exitDy=0;entryX=0;entryY=0;entryDx=0;entryDy=0;strokeWidth=2;fontSize=40;" edge="1" parent="1" source="4uCp4zY6eOAsEUpB9Vj1-11" target="4uCp4zY6eOAsEUpB9Vj1-12">
          <mxGeometry width="50" height="50" relative="1" as="geometry">
            <mxPoint x="667.2842712474619" y="377.00427124746193" as="sourcePoint" />
            <mxPoint x="628" y="422.72" as="targetPoint" />
          </mxGeometry>
        </mxCell>
        <mxCell id="4uCp4zY6eOAsEUpB9Vj1-26" value="" style="endArrow=none;html=1;rounded=0;entryX=0.5;entryY=1;entryDx=0;entryDy=0;exitX=0.5;exitY=0;exitDx=0;exitDy=0;strokeWidth=2;fontSize=40;" edge="1" parent="1" source="4uCp4zY6eOAsEUpB9Vj1-15" target="4uCp4zY6eOAsEUpB9Vj1-11">
          <mxGeometry width="50" height="50" relative="1" as="geometry">
            <mxPoint x="427" y="469" as="sourcePoint" />
            <mxPoint x="477" y="419" as="targetPoint" />
          </mxGeometry>
        </mxCell>
        <mxCell id="4uCp4zY6eOAsEUpB9Vj1-27" value="" style="endArrow=none;html=1;rounded=0;exitX=1;exitY=0;exitDx=0;exitDy=0;strokeWidth=2;fontSize=40;" edge="1" parent="1" source="4uCp4zY6eOAsEUpB9Vj1-16" target="4uCp4zY6eOAsEUpB9Vj1-15">
          <mxGeometry width="50" height="50" relative="1" as="geometry">
            <mxPoint x="366" y="550" as="sourcePoint" />
            <mxPoint x="416" y="500" as="targetPoint" />
          </mxGeometry>
        </mxCell>
        <mxCell id="4uCp4zY6eOAsEUpB9Vj1-28" value="" style="endArrow=none;html=1;rounded=0;exitX=1;exitY=1;exitDx=0;exitDy=0;strokeWidth=2;fontSize=40;" edge="1" parent="1" source="4uCp4zY6eOAsEUpB9Vj1-15" target="4uCp4zY6eOAsEUpB9Vj1-17">
          <mxGeometry width="50" height="50" relative="1" as="geometry">
            <mxPoint x="678" y="596" as="sourcePoint" />
            <mxPoint x="728" y="546" as="targetPoint" />
          </mxGeometry>
        </mxCell>
        <mxCell id="4uCp4zY6eOAsEUpB9Vj1-29" value="" style="endArrow=none;html=1;rounded=0;entryX=0.5;entryY=1;entryDx=0;entryDy=0;exitX=0.5;exitY=0;exitDx=0;exitDy=0;strokeWidth=2;fontSize=40;" edge="1" parent="1" source="4uCp4zY6eOAsEUpB9Vj1-8">
          <mxGeometry width="50" height="50" relative="1" as="geometry">
            <mxPoint x="605" y="181" as="sourcePoint" />
            <mxPoint x="417" y="94.00000000000006" as="targetPoint" />
          </mxGeometry>
        </mxCell>
        <mxCell id="4uCp4zY6eOAsEUpB9Vj1-30" value="" style="endArrow=none;html=1;rounded=0;exitX=1;exitY=0;exitDx=0;exitDy=0;strokeWidth=2;fontSize=40;" edge="1" parent="1" source="4uCp4zY6eOAsEUpB9Vj1-18" target="4uCp4zY6eOAsEUpB9Vj1-17">
          <mxGeometry width="50" height="50" relative="1" as="geometry">
            <mxPoint x="590" y="806" as="sourcePoint" />
            <mxPoint x="640" y="756" as="targetPoint" />
          </mxGeometry>
        </mxCell>
        <mxCell id="4uCp4zY6eOAsEUpB9Vj1-31" value="" style="endArrow=none;html=1;rounded=0;entryX=0.93;entryY=0.72;entryDx=0;entryDy=0;entryPerimeter=0;strokeWidth=2;fontSize=40;" edge="1" parent="1" source="4uCp4zY6eOAsEUpB9Vj1-19" target="4uCp4zY6eOAsEUpB9Vj1-17">
          <mxGeometry width="50" height="50" relative="1" as="geometry">
            <mxPoint x="664" y="810" as="sourcePoint" />
            <mxPoint x="714" y="760" as="targetPoint" />
          </mxGeometry>
        </mxCell>
        <mxCell id="4uCp4zY6eOAsEUpB9Vj1-33" value="$$Result$$" style="ellipse;whiteSpace=wrap;html=1;fontSize=24;strokeWidth=2;" vertex="1" parent="1">
          <mxGeometry x="357" y="14" width="120" height="80" as="geometry" />
        </mxCell>
      </root>
    </mxGraphModel>
  </diagram>
</mxfile>
